<svg xmlns="http://www.w3.org/2000/svg" viewBox="0 0 800 500" width="800" height="500" role="img">
  <defs>
    <linearGradient id="bg" x1="0" y1="0" x2="1" y2="1">
      <stop offset="0%" stop-color="#202024"/><stop offset="100%" stop-color="#17171a"/>
    </linearGradient>
    <radialGradient id="glow" cx="0.5" cy="0.35" r="0.72">
      <stop offset="0%" stop-color="#7a6fbf" stop-opacity="0.22"/>
      <stop offset="100%" stop-color="#7a6fbf" stop-opacity="0"/>
    </radialGradient>
  </defs>
  <rect width="800" height="500" fill="url(#bg)"/>
  <rect width="800" height="500" fill="url(#glow)"/>
  <rect x="60" y="46" width="680" height="352" rx="12" fill="#ffffff" fill-opacity="0.035" stroke="#ffffff" stroke-opacity="0.1"/>
  <line x1="60" y1="80" x2="740" y2="80" stroke="#ffffff" stroke-opacity="0.10"/>
  <circle cx="82" cy="63" r="4" fill="#ffffff" fill-opacity="0.18"/>
  <circle cx="98" cy="63" r="4" fill="#ffffff" fill-opacity="0.18"/>
  <circle cx="114" cy="63" r="4" fill="#ffffff" fill-opacity="0.18"/>
  <rect x="88" y="118" width="120" height="8" rx="3" fill="#ffffff" fill-opacity="0.16"/>
  <rect x="88" y="142" width="110" height="78" rx="9" fill="#ffffff" fill-opacity="0.05" stroke="#ffffff" stroke-opacity="0.09"/>
  <circle cx="132" cy="164" r="12" fill="#7a6fbf" fill-opacity="0.62"/>
  <rect x="104" y="188" width="78" height="7" rx="3.5" fill="#ffffff" fill-opacity="0.15"/>
  <rect x="104" y="201" width="52" height="6" rx="3" fill="#ffffff" fill-opacity="0.09"/>
  <rect x="216" y="142" width="110" height="78" rx="9" fill="#ffffff" fill-opacity="0.05" stroke="#ffffff" stroke-opacity="0.09"/>
  <circle cx="260" cy="164" r="12" fill="#ffffff" fill-opacity="0.16"/>
  <rect x="232" y="188" width="78" height="7" rx="3.5" fill="#ffffff" fill-opacity="0.15"/>
  <rect x="232" y="201" width="52" height="6" rx="3" fill="#ffffff" fill-opacity="0.09"/>
  <rect x="344" y="142" width="110" height="78" rx="9" fill="#ffffff" fill-opacity="0.05" stroke="#ffffff" stroke-opacity="0.09"/>
  <circle cx="388" cy="164" r="12" fill="#ffffff" fill-opacity="0.16"/>
  <rect x="360" y="188" width="78" height="7" rx="3.5" fill="#ffffff" fill-opacity="0.15"/>
  <rect x="360" y="201" width="52" height="6" rx="3" fill="#ffffff" fill-opacity="0.09"/>
  <rect x="472" y="142" width="110" height="78" rx="9" fill="#ffffff" fill-opacity="0.05" stroke="#ffffff" stroke-opacity="0.09"/>
  <circle cx="516" cy="164" r="12" fill="#7a6fbf" fill-opacity="0.62"/>
  <rect x="488" y="188" width="78" height="7" rx="3.5" fill="#ffffff" fill-opacity="0.15"/>
  <rect x="488" y="201" width="52" height="6" rx="3" fill="#ffffff" fill-opacity="0.09"/>
  <rect x="600" y="142" width="110" height="78" rx="9" fill="#ffffff" fill-opacity="0.05" stroke="#ffffff" stroke-opacity="0.09"/>
  <circle cx="644" cy="164" r="12" fill="#ffffff" fill-opacity="0.16"/>
  <rect x="616" y="188" width="78" height="7" rx="3.5" fill="#ffffff" fill-opacity="0.15"/>
  <rect x="616" y="201" width="52" height="6" rx="3" fill="#ffffff" fill-opacity="0.09"/>
  <rect x="88" y="238" width="110" height="78" rx="9" fill="#ffffff" fill-opacity="0.05" stroke="#ffffff" stroke-opacity="0.09"/>
  <circle cx="132" cy="260" r="12" fill="#ffffff" fill-opacity="0.16"/>
  <rect x="104" y="284" width="78" height="7" rx="3.5" fill="#ffffff" fill-opacity="0.15"/>
  <rect x="104" y="297" width="52" height="6" rx="3" fill="#ffffff" fill-opacity="0.09"/>
  <rect x="216" y="238" width="110" height="78" rx="9" fill="#ffffff" fill-opacity="0.05" stroke="#ffffff" stroke-opacity="0.09"/>
  <circle cx="260" cy="260" r="12" fill="#7a6fbf" fill-opacity="0.62"/>
  <rect x="232" y="284" width="78" height="7" rx="3.5" fill="#ffffff" fill-opacity="0.15"/>
  <rect x="232" y="297" width="52" height="6" rx="3" fill="#ffffff" fill-opacity="0.09"/>
  <rect x="344" y="238" width="110" height="78" rx="9" fill="#ffffff" fill-opacity="0.05" stroke="#ffffff" stroke-opacity="0.09"/>
  <circle cx="388" cy="260" r="12" fill="#ffffff" fill-opacity="0.16"/>
  <rect x="360" y="284" width="78" height="7" rx="3.5" fill="#ffffff" fill-opacity="0.15"/>
  <rect x="360" y="297" width="52" height="6" rx="3" fill="#ffffff" fill-opacity="0.09"/>
  <rect x="472" y="238" width="110" height="78" rx="9" fill="#ffffff" fill-opacity="0.05" stroke="#ffffff" stroke-opacity="0.09"/>
  <circle cx="516" cy="260" r="12" fill="#ffffff" fill-opacity="0.16"/>
  <rect x="488" y="284" width="78" height="7" rx="3.5" fill="#ffffff" fill-opacity="0.15"/>
  <rect x="488" y="297" width="52" height="6" rx="3" fill="#ffffff" fill-opacity="0.09"/>
  <rect x="600" y="238" width="110" height="78" rx="9" fill="#ffffff" fill-opacity="0.05" stroke="#ffffff" stroke-opacity="0.09"/>
  <circle cx="644" cy="260" r="12" fill="#7a6fbf" fill-opacity="0.62"/>
  <rect x="616" y="284" width="78" height="7" rx="3.5" fill="#ffffff" fill-opacity="0.15"/>
  <rect x="616" y="297" width="52" height="6" rx="3" fill="#ffffff" fill-opacity="0.09"/>
  <text x="400" y="378" text-anchor="middle" font-family="Helvetica, Arial, sans-serif" font-size="11" font-weight="400" fill="#ffffff" fill-opacity="0.3" letter-spacing="1.5">TOKENS  ·  COMPONENTS  ·  STATES  ·  PLATFORMS</text>
  <text x="400" y="438" text-anchor="middle" font-family="Helvetica, Arial, sans-serif" font-size="24" font-weight="600" fill="#ffffff" fill-opacity="1" letter-spacing="0">Exchange Design System</text>
  <text x="400" y="466" text-anchor="middle" font-family="Helvetica, Arial, sans-serif" font-size="12" font-weight="400" fill="#ffe071" fill-opacity="0.8" letter-spacing="2">DESIGN SYSTEM</text>
</svg>