<svg xmlns="http://www.w3.org/2000/svg" viewBox="0 0 800 450" width="800" height="450" role="img" aria-label="proj-ds">
  <rect width="800" height="450" fill="#17171a"/>
  <rect x="12" y="12" width="776" height="426" rx="12" fill="#2c2c33" fill-opacity="1" stroke="#ffffff" stroke-opacity="0.18" stroke-width="1"/>
  <line x1="12" y1="48" x2="788" y2="48" stroke="#ffffff" stroke-opacity="0.16" stroke-width="1"/>
  <circle cx="34" cy="30" r="4.5" fill="#e05a4e" fill-opacity="0.9"/>
  <circle cx="50" cy="30" r="4.5" fill="#ffd95e" fill-opacity="0.9"/>
  <circle cx="66" cy="30" r="4.5" fill="#3fa87b" fill-opacity="0.9"/>
  <text x="140" y="34" text-anchor="start" font-family="Helvetica, Arial, sans-serif" font-size="11" font-weight="400" fill="#ffffff" fill-opacity="0.42" letter-spacing="0">design system</text>
  <rect x="12" y="48" width="776" height="390" rx="0" fill="#34343c" fill-opacity="1"/>
  <text x="34" y="76" text-anchor="start" font-family="Helvetica, Arial, sans-serif" font-size="12" font-weight="600" fill="#ffffff" fill-opacity="0.9" letter-spacing="1">CORE COMPONENTS</text>
  <text x="258" y="76" text-anchor="start" font-family="Helvetica, Arial, sans-serif" font-size="10" font-weight="400" fill="#ffffff" fill-opacity="0.5" letter-spacing="0">web  ·  h5  ·  app</text>
  <rect x="34" y="96" width="108" height="36" rx="8" fill="#e05a4e" fill-opacity="1"/>
  <text x="88" y="119" text-anchor="middle" font-family="Helvetica, Arial, sans-serif" font-size="11.5" font-weight="600" fill="#2a1210" fill-opacity="1" letter-spacing="0">Primary</text>
  <rect x="150" y="96" width="108" height="36" rx="8" fill="#ffffff" fill-opacity="0.16"/>
  <text x="204" y="119" text-anchor="middle" font-family="Helvetica, Arial, sans-serif" font-size="11.5" font-weight="500" fill="#ffffff" fill-opacity="0.9" letter-spacing="0">Secondary</text>
  <rect x="266" y="96" width="108" height="36" rx="8" fill="#ffffff" fill-opacity="0.05" stroke="#ffffff" stroke-opacity="0.35" stroke-width="1"/>
  <text x="320" y="119" text-anchor="middle" font-family="Helvetica, Arial, sans-serif" font-size="11.5" font-weight="400" fill="#ffffff" fill-opacity="0.65" letter-spacing="0">Ghost</text>
  <text x="34" y="160" text-anchor="start" font-family="Helvetica, Arial, sans-serif" font-size="9.5" font-weight="400" fill="#ffffff" fill-opacity="0.5" letter-spacing="0">Text field</text>
  <rect x="34" y="170" width="340" height="38" rx="8" fill="#ffffff" fill-opacity="0.09" stroke="#ffffff" stroke-opacity="0.18" stroke-width="1"/>
  <text x="48" y="194" text-anchor="start" font-family="Helvetica, Arial, sans-serif" font-size="11" font-weight="400" fill="#ffffff" fill-opacity="0.4" letter-spacing="0">placeholder</text>
  <text x="34" y="230" text-anchor="start" font-family="Helvetica, Arial, sans-serif" font-size="9.5" font-weight="400" fill="#ffffff" fill-opacity="0.5" letter-spacing="0">Focused</text>
  <rect x="34" y="240" width="340" height="38" rx="8" fill="#ffffff" fill-opacity="0.12" stroke="#e05a4e" stroke-opacity="0.9" stroke-width="2"/>
  <text x="48" y="264" text-anchor="start" font-family="Helvetica, Arial, sans-serif" font-size="11" font-weight="400" fill="#ffffff" fill-opacity="0.95" letter-spacing="0">entered value</text>
  <text x="34" y="302" text-anchor="start" font-family="Helvetica, Arial, sans-serif" font-size="9.5" font-weight="400" fill="#ffffff" fill-opacity="0.5" letter-spacing="0">Status tags</text>
  <rect x="34" y="312" width="63" height="24" rx="12" fill="#3fa87b" fill-opacity="0.35"/>
  <text x="65" y="328" text-anchor="middle" font-family="Helvetica, Arial, sans-serif" font-size="9.5" font-weight="600" fill="#3fa87b" fill-opacity="1" letter-spacing="0">Filled</text>
  <rect x="103" y="312" width="63" height="24" rx="12" fill="#ffd95e" fill-opacity="0.35"/>
  <text x="134" y="328" text-anchor="middle" font-family="Helvetica, Arial, sans-serif" font-size="9.5" font-weight="600" fill="#ffd95e" fill-opacity="1" letter-spacing="0">Partial</text>
  <rect x="172" y="312" width="63" height="24" rx="12" fill="#ffffff" fill-opacity="0.35"/>
  <text x="203" y="328" text-anchor="middle" font-family="Helvetica, Arial, sans-serif" font-size="9.5" font-weight="600" fill="#ffffff" fill-opacity="1" letter-spacing="0">Canceled</text>
  <rect x="241" y="312" width="63" height="24" rx="12" fill="#e05a4e" fill-opacity="0.35"/>
  <text x="272" y="328" text-anchor="middle" font-family="Helvetica, Arial, sans-serif" font-size="9.5" font-weight="600" fill="#e05a4e" fill-opacity="1" letter-spacing="0">Failed</text>
  <rect x="310" y="312" width="63" height="24" rx="12" fill="#5f93d8" fill-opacity="0.35"/>
  <text x="341" y="328" text-anchor="middle" font-family="Helvetica, Arial, sans-serif" font-size="9.5" font-weight="600" fill="#5f93d8" fill-opacity="1" letter-spacing="0">Pending</text>
  <rect x="34" y="352" width="340" height="74" rx="8" fill="#25252b" fill-opacity="1"/>
  <rect x="34" y="352" width="340" height="26" rx="8" fill="#ffffff" fill-opacity="0.1"/>
  <text x="48" y="370" text-anchor="start" font-family="Helvetica, Arial, sans-serif" font-size="9" font-weight="400" fill="#ffffff" fill-opacity="0.5" letter-spacing="0">Market</text>
  <text x="160" y="370" text-anchor="start" font-family="Helvetica, Arial, sans-serif" font-size="9" font-weight="400" fill="#ffffff" fill-opacity="0.5" letter-spacing="0">Price</text>
  <text x="272" y="370" text-anchor="start" font-family="Helvetica, Arial, sans-serif" font-size="9" font-weight="400" fill="#ffffff" fill-opacity="0.5" letter-spacing="0">Change</text>
  <text x="48" y="396" text-anchor="start" font-family="Helvetica, Arial, sans-serif" font-size="10" font-weight="400" fill="#ffffff" fill-opacity="0.9" letter-spacing="0">BTC-USDT</text>
  <text x="160" y="396" text-anchor="start" font-family="Helvetica, Arial, sans-serif" font-size="10" font-weight="400" fill="#ffffff" fill-opacity="0.6" letter-spacing="0">80k</text>
  <text x="272" y="396" text-anchor="start" font-family="Helvetica, Arial, sans-serif" font-size="10" font-weight="400" fill="#e05a4e" fill-opacity="1" letter-spacing="0">+1.2%</text>
  <text x="48" y="418" text-anchor="start" font-family="Helvetica, Arial, sans-serif" font-size="10" font-weight="400" fill="#ffffff" fill-opacity="0.9" letter-spacing="0">BTC-USDT</text>
  <text x="160" y="418" text-anchor="start" font-family="Helvetica, Arial, sans-serif" font-size="10" font-weight="400" fill="#ffffff" fill-opacity="0.6" letter-spacing="0">84k</text>
  <text x="272" y="418" text-anchor="start" font-family="Helvetica, Arial, sans-serif" font-size="10" font-weight="400" fill="#3fa87b" fill-opacity="1" letter-spacing="0">-1.6%</text>
  <text x="400" y="96" text-anchor="start" font-family="Helvetica, Arial, sans-serif" font-size="9.5" font-weight="400" fill="#ffffff" fill-opacity="0.55" letter-spacing="0.6">COMPONENT LIBRARY</text>
  <rect x="400" y="108" width="114" height="86" rx="9" fill="#ffffff" fill-opacity="0.09" stroke="#ffffff" stroke-opacity="0.16" stroke-width="1"/>
  <circle cx="457" cy="140" r="17" fill="#e05a4e" fill-opacity="0.95"/>
  <rect x="422" y="168" width="70" height="8" rx="4" fill="#ffffff" fill-opacity="0.3"/>
  <rect x="422" y="181" width="46" height="7" rx="3.5" fill="#ffffff" fill-opacity="0.18"/>
  <rect x="526" y="108" width="114" height="86" rx="9" fill="#ffffff" fill-opacity="0.09" stroke="#ffffff" stroke-opacity="0.16" stroke-width="1"/>
  <circle cx="583" cy="140" r="17" fill="#ffffff" fill-opacity="0.25"/>
  <rect x="548" y="168" width="70" height="8" rx="4" fill="#ffffff" fill-opacity="0.3"/>
  <rect x="548" y="181" width="46" height="7" rx="3.5" fill="#ffffff" fill-opacity="0.18"/>
  <rect x="652" y="108" width="114" height="86" rx="9" fill="#ffffff" fill-opacity="0.09" stroke="#ffffff" stroke-opacity="0.16" stroke-width="1"/>
  <circle cx="709" cy="140" r="17" fill="#ffffff" fill-opacity="0.25"/>
  <rect x="674" y="168" width="70" height="8" rx="4" fill="#ffffff" fill-opacity="0.3"/>
  <rect x="674" y="181" width="46" height="7" rx="3.5" fill="#ffffff" fill-opacity="0.18"/>
  <rect x="400" y="208" width="114" height="86" rx="9" fill="#ffffff" fill-opacity="0.09" stroke="#ffffff" stroke-opacity="0.16" stroke-width="1"/>
  <circle cx="457" cy="240" r="17" fill="#ffffff" fill-opacity="0.25"/>
  <rect x="422" y="268" width="70" height="8" rx="4" fill="#ffffff" fill-opacity="0.3"/>
  <rect x="422" y="281" width="46" height="7" rx="3.5" fill="#ffffff" fill-opacity="0.18"/>
  <rect x="526" y="208" width="114" height="86" rx="9" fill="#ffffff" fill-opacity="0.09" stroke="#ffffff" stroke-opacity="0.16" stroke-width="1"/>
  <circle cx="583" cy="240" r="17" fill="#e05a4e" fill-opacity="0.95"/>
  <rect x="548" y="268" width="70" height="8" rx="4" fill="#ffffff" fill-opacity="0.3"/>
  <rect x="548" y="281" width="46" height="7" rx="3.5" fill="#ffffff" fill-opacity="0.18"/>
  <rect x="652" y="208" width="114" height="86" rx="9" fill="#ffffff" fill-opacity="0.09" stroke="#ffffff" stroke-opacity="0.16" stroke-width="1"/>
  <circle cx="709" cy="240" r="17" fill="#ffffff" fill-opacity="0.25"/>
  <rect x="674" y="268" width="70" height="8" rx="4" fill="#ffffff" fill-opacity="0.3"/>
  <rect x="674" y="281" width="46" height="7" rx="3.5" fill="#ffffff" fill-opacity="0.18"/>
  <rect x="400" y="308" width="114" height="86" rx="9" fill="#ffffff" fill-opacity="0.09" stroke="#ffffff" stroke-opacity="0.16" stroke-width="1"/>
  <circle cx="457" cy="340" r="17" fill="#ffffff" fill-opacity="0.25"/>
  <rect x="422" y="368" width="70" height="8" rx="4" fill="#ffffff" fill-opacity="0.3"/>
  <rect x="422" y="381" width="46" height="7" rx="3.5" fill="#ffffff" fill-opacity="0.18"/>
  <rect x="526" y="308" width="114" height="86" rx="9" fill="#ffffff" fill-opacity="0.09" stroke="#ffffff" stroke-opacity="0.16" stroke-width="1"/>
  <circle cx="583" cy="340" r="17" fill="#ffffff" fill-opacity="0.25"/>
  <rect x="548" y="368" width="70" height="8" rx="4" fill="#ffffff" fill-opacity="0.3"/>
  <rect x="548" y="381" width="46" height="7" rx="3.5" fill="#ffffff" fill-opacity="0.18"/>
  <rect x="652" y="308" width="114" height="86" rx="9" fill="#ffffff" fill-opacity="0.09" stroke="#ffffff" stroke-opacity="0.16" stroke-width="1"/>
  <circle cx="709" cy="340" r="17" fill="#e05a4e" fill-opacity="0.95"/>
  <rect x="674" y="368" width="70" height="8" rx="4" fill="#ffffff" fill-opacity="0.3"/>
  <rect x="674" y="381" width="46" height="7" rx="3.5" fill="#ffffff" fill-opacity="0.18"/>
  <text x="400" y="424" text-anchor="start" font-family="Helvetica, Arial, sans-serif" font-size="9.5" font-weight="400" fill="#ffffff" fill-opacity="0.45" letter-spacing="0">48 components  ·  12 patterns  ·  3 platforms</text>
</svg>
