<svg xmlns="http://www.w3.org/2000/svg" viewBox="0 0 800 500" width="800" height="500" role="img">
  <defs>
    <linearGradient id="bg" x1="0" y1="0" x2="1" y2="1">
      <stop offset="0%" stop-color="#202024"/><stop offset="100%" stop-color="#17171a"/>
    </linearGradient>
    <radialGradient id="glow" cx="0.5" cy="0.35" r="0.72">
      <stop offset="0%" stop-color="#c2453e" stop-opacity="0.22"/>
      <stop offset="100%" stop-color="#c2453e" stop-opacity="0"/>
    </radialGradient>
  </defs>
  <rect width="800" height="500" fill="url(#bg)"/>
  <rect width="800" height="500" fill="url(#glow)"/>
  <rect x="60" y="46" width="680" height="352" rx="12" fill="#ffffff" fill-opacity="0.035" stroke="#ffffff" stroke-opacity="0.1"/>
  <line x1="60" y1="80" x2="740" y2="80" stroke="#ffffff" stroke-opacity="0.10"/>
  <circle cx="82" cy="63" r="4" fill="#ffffff" fill-opacity="0.18"/>
  <circle cx="98" cy="63" r="4" fill="#ffffff" fill-opacity="0.18"/>
  <circle cx="114" cy="63" r="4" fill="#ffffff" fill-opacity="0.18"/>
  <text x="212" y="104" text-anchor="middle" font-family="Helvetica, Arial, sans-serif" font-size="10" font-weight="400" fill="#ffffff" fill-opacity="0.4" letter-spacing="2">ASKS</text>
  <rect x="212" y="116" width="210" height="13" rx="3" fill="#c2453e" fill-opacity="0.14"/>
  <rect x="560" y="116" width="90" height="8" rx="3" fill="#ffffff" fill-opacity="0.13"/>
  <rect x="212" y="136" width="184" height="13" rx="3" fill="#c2453e" fill-opacity="0.14"/>
  <rect x="560" y="136" width="82" height="8" rx="3" fill="#ffffff" fill-opacity="0.13"/>
  <rect x="212" y="156" width="158" height="13" rx="3" fill="#c2453e" fill-opacity="0.14"/>
  <rect x="560" y="156" width="74" height="8" rx="3" fill="#ffffff" fill-opacity="0.13"/>
  <rect x="212" y="176" width="132" height="13" rx="3" fill="#c2453e" fill-opacity="0.14"/>
  <rect x="560" y="176" width="66" height="8" rx="3" fill="#ffffff" fill-opacity="0.13"/>
  <rect x="212" y="196" width="106" height="13" rx="3" fill="#c2453e" fill-opacity="0.14"/>
  <rect x="560" y="196" width="58" height="8" rx="3" fill="#ffffff" fill-opacity="0.13"/>
  <rect x="212" y="262" width="300" height="3" rx="1" fill="#c2453e" fill-opacity="0.12"/>
  <text x="212" y="282" text-anchor="middle" font-family="Helvetica, Arial, sans-serif" font-size="10" font-weight="400" fill="#ffffff" fill-opacity="0.4" letter-spacing="2">BIDS</text>
  <rect x="212" y="294" width="140" height="13" rx="3" fill="#c2453e" fill-opacity="0.14"/>
  <rect x="560" y="294" width="90" height="8" rx="3" fill="#ffffff" fill-opacity="0.13"/>
  <rect x="212" y="314" width="166" height="13" rx="3" fill="#c2453e" fill-opacity="0.14"/>
  <rect x="560" y="314" width="98" height="8" rx="3" fill="#ffffff" fill-opacity="0.13"/>
  <rect x="212" y="334" width="192" height="13" rx="3" fill="#c2453e" fill-opacity="0.14"/>
  <rect x="560" y="334" width="106" height="8" rx="3" fill="#ffffff" fill-opacity="0.13"/>
  <rect x="212" y="354" width="218" height="13" rx="3" fill="#c2453e" fill-opacity="0.14"/>
  <rect x="560" y="354" width="114" height="8" rx="3" fill="#ffffff" fill-opacity="0.13"/>
  <rect x="212" y="374" width="244" height="13" rx="3" fill="#c2453e" fill-opacity="0.14"/>
  <rect x="560" y="374" width="122" height="8" rx="3" fill="#ffffff" fill-opacity="0.13"/>
  <rect x="88" y="108" width="92" height="7" rx="3" fill="#ffffff" fill-opacity="0.16"/>
  <rect x="88" y="130" width="74" height="7" rx="3" fill="#ffffff" fill-opacity="0.16"/>
  <rect x="88" y="152" width="86" height="7" rx="3" fill="#ffffff" fill-opacity="0.16"/>
  <rect x="88" y="174" width="66" height="7" rx="3" fill="#ffffff" fill-opacity="0.16"/>
  <rect x="88" y="196" width="80" height="7" rx="3" fill="#ffffff" fill-opacity="0.16"/>
  <rect x="88" y="218" width="58" height="7" rx="3" fill="#ffffff" fill-opacity="0.16"/>
  <rect x="88" y="240" width="88" height="7" rx="3" fill="#ffffff" fill-opacity="0.16"/>
  <text x="400" y="438" text-anchor="middle" font-family="Helvetica, Arial, sans-serif" font-size="24" font-weight="600" fill="#ffffff" fill-opacity="1" letter-spacing="0">Order Book &amp; Depth Visualisation</text>
  <text x="400" y="466" text-anchor="middle" font-family="Helvetica, Arial, sans-serif" font-size="12" font-weight="400" fill="#ffe071" fill-opacity="0.8" letter-spacing="2">TRADING UI</text>
</svg>